<?xml version="1.0" ?>
<!-- Uploaded to: SVG Repo, www.svgrepo.com, Generator: SVG Repo Mixer Tools -->
<svg width="800px" height="800px" viewBox="0 0 91 91" id="Layer_1" version="1.1" xml:space="preserve" xmlns="http://www.w3.org/2000/svg" xmlns:xlink="http://www.w3.org/1999/xlink">
<style type="text/css">
	.st0{fill:#4E7A9E;}
</style>
<g>
<g>
<path class="st0" d="M18.5,26.1c7.3,2.3,16.1-1.1,21-6.7c2.3-2.7,4-6.1,3.3-9.7c-0.6-3.2-2.7-6.7-6.1-7.3c-0.9-0.2-1.6,0-2.2,0.4    c-2.1-0.3-4.6,0.3-6.4,0.8c-3.8,1.1-7.2,3.2-10.2,5.8c-2.7,2.4-5.1,5.5-5.1,9.2C12.8,22.2,15.1,25.1,18.5,26.1z M25.5,10.7    c1.9-1.1,4-2,6.1-2.6C32.3,8,33,7.9,33.7,7.8C34,8.1,34.5,8.3,35,8.4c2.1,0.4,1.9,3.6,1.4,5c-0.8,1.8-2.5,3.4-4.2,4.6    c-3,2.1-8.6,4.3-12.2,2.6C14.8,18.2,23.3,12,25.5,10.7z"/>
<path class="st0" d="M72.7,26.1c3.2-1,5.5-3.6,5.7-7c0.2-4-2.3-7.2-5.1-9.7c-3-2.6-6.4-4.6-10.2-5.8c-1.8-0.5-4.3-1.1-6.4-0.8    c-0.6-0.4-1.3-0.5-2.2-0.4c-3.4,0.6-5.5,4.1-6.1,7.3c-0.7,3.6,1,7,3.3,9.7C56.6,25,65.5,28.4,72.7,26.1z M65.7,10.7    c2.1,1.2,10.8,7.6,5.4,9.9C67.4,22.2,62,20.2,59,18c-1.6-1.2-3.3-2.7-4.2-4.6c-0.6-1.4-0.7-4.7,1.4-5c0.6-0.1,1-0.3,1.3-0.6    c0.7,0.1,1.4,0.2,2.1,0.3C61.8,8.7,63.8,9.6,65.7,10.7z"/>
<path class="st0" d="M44.2,27.9c-1.1,0-1.8,0.6-2.3,1.3c-0.2,0-0.5,0.1-0.8,0.2c-2,0.6-3.7,1.8-5,3.4c-3.1,3.7-4,8.6-3.6,13.3    c0.5,5.8,1.6,11.6,2.4,17.4c0.8,5.6,1.4,11.3,2.6,16.8c0.7,3.6,2.8,7.8,7,7.7c4.4-0.1,7.3-4.4,8.8-8.1c1.8-4.5,2.3-9.5,2.4-14.3    c0.2-6,0.5-11.7,1.7-17.6c1-5.2,1.3-11-1.9-15.5C52.9,28.8,48.6,27.8,44.2,27.9z M50.9,53.9c-0.6,5-0.3,10.1-0.7,15.2    c-0.2,2.5-0.5,5-1.3,7.3c-0.5,1.6-1.9,5.5-3.9,5.8c-1.5,0.2-1.7-2.5-1.9-3.8c-0.4-2.5-0.7-5-1-7.5c-0.8-5.2-1.6-10.4-2.4-15.5    c-0.8-5-2.3-10.5-1.1-15.5c0.6-2.3,1.7-4.4,3.7-5.7c0.3-0.2,0.7-0.5,1-0.7c0.3,0.1,0.6,0.1,0.9,0.1c4.3-0.6,7.5,1.1,8.4,5.7    C53.6,44.1,51.5,49.1,50.9,53.9z"/>
<path class="st0" d="M83.8,28.3c-0.2-0.7-0.9-1-1.6-0.9c-2.1,0.3-3.2,2.4-4.3,4c-1.5,2.2-3.1,4.4-4.8,6.5c-3.3,4-6.5,8.1-8.4,13    c-2,5.2-2.7,10.8-3.1,16.3c-0.2,3.1-0.3,6.2-0.5,9.3c-0.2,3.1-0.8,6.2-0.7,9.3c0.1,3.7,5.3,4.4,6.4,0.9c1.7-5.3,1-11.7,1-17.1    c0-5.7,0.3-11.3,2.1-16.7c1.7-4.9,5-8.9,8.1-13C80.1,37.3,85,31.9,83.8,28.3z"/>
<path class="st0" d="M29.8,69.6c-0.6-5.2-1.4-10.4-2.9-15.5c-3-10.4-8.7-20.2-16.9-27.4c-1.2-1.1-3.1,0.3-2.3,1.8    c2.6,4.7,5.9,9,8.3,13.8c2.3,4.6,3.8,9.5,4.8,14.6c1,4.9,1.4,9.9,1.5,14.9c0.2,4.8-0.9,10.7,1,15.1c1.4,3.3,5.9,1.7,6.9-0.9    c1-2.7,0.3-5.9,0.1-8.7C30.3,74.7,30.1,72.1,29.8,69.6z"/>
</g>
</g>
</svg>