<?xml version="1.0" ?>
<!-- Uploaded to: SVG Repo, www.svgrepo.com, Generator: SVG Repo Mixer Tools -->
<svg width="800px" height="800px" viewBox="0 0 91 91" id="Layer_1" version="1.1" xml:space="preserve" xmlns="http://www.w3.org/2000/svg" xmlns:xlink="http://www.w3.org/1999/xlink">
<style type="text/css">
	.st0{fill:#90BED0;}
	.st1{fill:#4E7A9E;}
</style>
<g>
<g>
<g>
<path class="st0" d="M90.4,36.9c-2-10.1-17.1-6.3-21.2-0.1c-0.7,1.1,0.7,2.2,1.7,1.7c0.1-0.1,0.3-0.1,0.4-0.2     c1,4.2,8.7,6.5,12.4,6.3C87.9,44.4,91.3,41.3,90.4,36.9z M79.9,38.1c-1.1-0.7-2.1-1.6-3.1-2.3c3.4-1.2,7.2-1.7,8.7,1.1     C87.5,40.6,81.3,39,79.9,38.1z"/>
<path class="st0" d="M83,20.6c5.2-3.4,3.8-10.4,0.5-14.7C79.7,1.1,72.9,2.4,68.2,5c-5.7,3.2-9.9,9-11.3,15.3     c-0.3,1.3,1.4,2.1,2.2,1c0.6,0.6,1.4,1.1,2.6,1.2C68.1,23.3,77.3,24.3,83,20.6z M66.7,10.8c2.8-2.5,8.8-6,12.6-3.5     c1.6,1.1,2.6,4.1,2.6,6c0,2.7-2.5,3.1-4.7,3.3c-4.8,0.5-9.6,0-14.2-1.5C64.1,13.6,65.2,12.1,66.7,10.8z"/>
</g>
<g>
<g>
<path class="st1" d="M14.1,50.2c0.8-3.2,0.3-6.8,0.2-10.1c-0.1-3.2,0.1-6.7-1.1-9.8c-0.9-2.3-3.6-2.2-4.6,0      c-1.3,3-1.1,6.5-1.3,9.8c-0.2,3.3-0.8,6.8,0,10.1C8.1,53.6,13.3,53.5,14.1,50.2z"/>
<path class="st1" d="M54.3,50.2c0.8-3.2,0.3-6.8,0.2-10.1c-0.1-3.2,0.1-6.7-1.1-9.8c-0.9-2.3-3.6-2.2-4.6,0      c-1.3,3-1.1,6.5-1.3,9.8c-0.2,3.3-0.8,6.8,0,10.1C48.3,53.6,53.4,53.5,54.3,50.2z"/>
<path class="st1" d="M54.9,73.8c-0.2-2.3-0.1-5.3-0.9-7.6c-1.8-5.1-9.6-3-13.6-2.8c-6.2,0.3-12.5,0.7-18.7,1.1      c-2.9,0.2-5.8,0.4-8.7,0.7c-1.5,0.1-2.9,0.3-4.3,0.5c-1.9,0.3-3.8,1-5.6,1.1c-1.6,0.1-1.6,2.6,0,2.5c1.4,0,2.9,0.3,4.4,0.5      c-0.4,0.4-0.7,1-0.8,1.7c-0.4,2.9-0.8,5.8-1.2,8.7c-0.2,1.8-0.6,3.5,0.4,5.2c1.3,2,3.3,2.1,5.4,2.1c2.7,0,5.4-0.1,8.1-0.1      c11-0.2,22.1-0.2,33.1-0.6c1.7-0.1,3.7-1.5,3.4-3.4C55.5,80.1,55.2,77,54.9,73.8z M30.6,79.8c-3.5,0-7.1,0-10.6,0.1      c-1.7,0-3.3,0-5,0c-0.6,0-1.4,0.1-2.2,0.1c0.1-0.7,0.1-1.3,0.2-2c0.2-1.9,0.4-3.7,0.6-5.6c0.1-1-0.2-1.7-0.8-2.3      c0.7,0,1.4,0,2,0c4,0,7.9,0,11.8-0.1c3.7-0.1,7.5-0.1,11.2-0.2c2.1,0,4.2-0.1,6.2-0.2c1.2,0,2.7-0.3,4-0.3      c0.4,1.9,0.2,4.9,0.3,6.2c0.1,1.4,0.2,2.8,0.4,4.2C42.7,79.7,36.7,79.8,30.6,79.8z"/>
</g>
</g>
</g>
</g>
</svg>