<?xml version="1.0" ?>
<!-- Uploaded to: SVG Repo, www.svgrepo.com, Generator: SVG Repo Mixer Tools -->
<svg width="800px" height="800px" viewBox="0 0 91 91" id="Layer_1" version="1.1" xml:space="preserve" xmlns="http://www.w3.org/2000/svg" xmlns:xlink="http://www.w3.org/1999/xlink">
<style type="text/css">
	.st0{fill:#4E7A9E;}
	.st1{fill:#90BED0;}
</style>
<g>
<g>
<g>
<path class="st0" d="M27.3,27c2,2,4,4,5.8,6.1c2.8,3.2,7.9-1.9,4.6-4.6c-3-2.5-5.7-5.3-8.6-8c-1.4-1.4-3.6-1-4.7,0.6     c-2.3,3.6-5,6.6-8.2,9.3c-1.5,1.3,0.1,4.3,2.1,3.6C21.9,32.5,24.8,29.9,27.3,27z"/>
<path class="st0" d="M73.4,28.4c-3-2.5-5.7-5.3-8.6-8c-1.4-1.4-3.6-1-4.7,0.6c-2.3,3.6-5,6.6-8.2,9.3c-1.5,1.3,0.1,4.3,2.1,3.6     c3.6-1.4,6.5-4,9-6.9c2,2,4,4,5.8,6.1C71.5,36.3,76.6,31.1,73.4,28.4z"/>
<path class="st0" d="M63.3,51.3C52.2,49.8,40,48.1,29,51.2c-0.6,0-1.2,0.2-1.7,0.5c0,0,0,0,0,0c-0.2,0.1-0.4,0.2-0.5,0.4     c-1.3,1.1-1.8,3.1-0.3,5c2.8,3.6,5.8,6.9,9.3,9.7c2.6,2.1,6.2,5.8,9.8,4.9c3.6-0.9,7.4-4.8,10.1-7.2c3.4-3,6.3-6.4,9.1-10     C65.4,53.5,64.6,51.5,63.3,51.3z M45.4,65.5c-1.6,0.8-2.1-0.2-3.5-1.3c-1.2-1-2.4-2.1-3.5-3.2c-2.3-2.3-4.3-4.7-6.1-7.4     c4.1-0.1,8.1-0.2,12.2,0c4.7,0.2,9.3,0.7,13.9,1.3C54.6,59,50.2,63,45.4,65.5z"/>
</g>
<g>
<path class="st1" d="M89.8,45.1c-1-1.9-2.9-3.3-4.7-4.5c-2.5-1.6-5-3.3-7.6-4.7c-2.1-1.2-4.5,1.2-3.7,3.1     c-0.6,3.8-0.4,8,1.3,11.4c2.1,4,6.9,6.6,11.2,4.6C90,53.4,91.7,48.7,89.8,45.1z M84.7,51.2c-3.3,1.4-6.2-2-6.9-4.9     c-0.4-1.4-0.5-2.9-0.5-4.4c1.6,0.9,3.4,1.6,5.1,2.5c1.2,0.6,2.7,1.3,3.6,2.4C87.2,48.3,86.6,50.4,84.7,51.2z"/>
<path class="st1" d="M14.1,35.9c-2.4,1.4-4.9,2.9-7.2,4.4c-1.8,1.2-3.7,2.5-4.9,4.4c-2.2,3.6-0.6,8.5,3.2,10.3     c4.2,1.9,8.8-0.5,11-4.2c2-3.4,2.2-7.9,1.5-11.8C18.6,37.1,16.2,34.7,14.1,35.9z M6.9,51.2c-1.5-0.7-2.5-2.5-1.6-4     C6.1,45.8,8,45,9.3,44.3c1.7-0.9,3.4-1.6,5.1-2.5c0,1.5-0.1,3-0.5,4.4C13.1,49.2,10.2,52.6,6.9,51.2z"/>
</g>
</g>
</g>
</svg>