<?xml version="1.0" ?>
<!-- Uploaded to: SVG Repo, www.svgrepo.com, Generator: SVG Repo Mixer Tools -->
<svg width="800px" height="800px" viewBox="0 0 91 91" id="Layer_1" version="1.1" xml:space="preserve" xmlns="http://www.w3.org/2000/svg" xmlns:xlink="http://www.w3.org/1999/xlink">
<style type="text/css">
	.st0{fill:#90BED0;}
	.st1{fill:#4E7A9E;}
</style>
<g>
<g>
<g>
<path class="st0" d="M16.6,40.3c-0.2-0.5-0.8-0.8-1.3-0.5c-2.7,1.5-4.9,3.3-7.2,5.4c-2,1.8-4.2,3.4-5.7,5.7     c-2.2,3.4-2.8,8.5,0.8,11.3c3.5,2.6,8.1,0.6,10.3-2.7c1.5-2.2,2-4.8,2.6-7.3c0.7-3.2,1.7-6.7,1.7-10     C17.9,41.2,17.3,40.6,16.6,40.3z M11.6,53.4c-0.3,1.5-0.6,3.3-1.6,4.6c-1.4,1.8-4.1,2.4-5-0.1c-1.3-3.4,2.1-6.3,4.2-8.5     c1.2-1.2,2.4-2.4,3.5-3.6C12.3,48.3,12.1,50.9,11.6,53.4z"/>
<path class="st0" d="M88.8,51.3c-1.4-2.3-3.5-4-5.5-5.7c-2.5-2.1-4.8-4.1-7.6-5.7c-0.5-0.3-1.1,0-1.3,0.5     c-0.7,0.2-1.2,0.9-1.2,1.9c0,3.1,0.9,6.4,1.6,9.4c0.6,2.6,1.1,5.2,2.5,7.5c2.2,3.5,7,5.8,10.6,3C91.2,59.6,90.9,54.6,88.8,51.3z      M86,57.8c-0.8,2.2-3.1,2.1-4.7,0.5c-1.3-1.3-1.7-3.2-2-5c-0.5-2.5-0.7-5.1-1.1-7.6c1.1,1.2,2.3,2.4,3.5,3.6     C83.9,51.5,87.3,54.4,86,57.8z"/>
</g>
<g>
<path class="st1" d="M28.5,31.7c-2.1,2.2-4,4.6-5.2,7.1c-1.6,3.3,2.5,7.1,5.3,4.1c3.4-3.6,5.9-8.1,9.3-11.8     c1.5-1.6,1-3.7-0.6-4.9c-2.6-1.8-4.9-4-7.1-6.3c-1.7-1.7-3.2-4.5-5.8-4.5c-0.7,0-1.2,0.5-1.4,1.1c-1.1,2.6,1.8,5.6,3.3,7.5     c0.4,0.5,0.8,1,1.2,1.5c-0.9,0-1.8,0-2.6,0c-2.8,0-6.5-0.2-8.8,1.5c-1,0.8-1.3,2.3,0,3.1c2.4,1.4,5.5,1,8.2,1.2     C25.7,31.3,27.1,31.5,28.5,31.7z"/>
<path class="st1" d="M74.8,27c-2.3-1.7-6-1.5-8.8-1.5c-0.8,0-1.7,0-2.6,0c0.4-0.5,0.8-1,1.2-1.5c1.5-1.9,4.4-4.9,3.3-7.5     c-0.3-0.6-0.7-1.1-1.4-1.1c-2.6,0-4.1,2.8-5.8,4.5c-2.2,2.3-4.5,4.4-7.1,6.3c-1.6,1.2-2.1,3.3-0.6,4.9c3.4,3.7,5.9,8.2,9.3,11.8     c2.8,3,6.9-0.8,5.3-4.1c-1.2-2.5-3.1-4.9-5.2-7.1c1.4-0.2,2.8-0.4,4.1-0.5c2.7-0.2,5.8,0.2,8.2-1.2C76.1,29.3,75.9,27.7,74.8,27z     "/>
<path class="st1" d="M55.9,47.5c-10.4-1.9-21-0.3-30.4,4.6c-3.5,1.8-0.4,7.1,3.1,5.3c8-4.2,17.3-5.7,26.2-4     c3.5,0.7,8.9,1.6,10.8,5c2,3.4,1,9.6-2.4,11.7c-4,2.5-7-1.4-10.2-3.5c-3.2-2-7.1-3.1-10.8-2.6c-4.1,0.5-6.3,3.1-9.4,5.5     c-3.9,3.1-7.8,0.5-8.7-3.9c-0.4-2-3.9-2.2-4.2,0c-1.3,8.4,8,14.1,15.2,9.7c3.8-2.3,5.7-6.2,10.8-5.3c4.3,0.8,6.8,4.4,10.7,6     C65.1,79.7,71.8,70.8,72,63C72.3,53.2,64.4,49.1,55.9,47.5z"/>
</g>
<g>
<g>
<path class="st1" d="M23.1,61.8c2.7,0,2.7-4.2,0-4.2C20.4,57.5,20.4,61.8,23.1,61.8L23.1,61.8z"/>
</g>
</g>
</g>
</g>
</svg>