<?xml version="1.0" ?>
<!-- Uploaded to: SVG Repo, www.svgrepo.com, Generator: SVG Repo Mixer Tools -->
<svg width="800px" height="800px" viewBox="0 0 91 91" id="Layer_1" version="1.1" xml:space="preserve" xmlns="http://www.w3.org/2000/svg" xmlns:xlink="http://www.w3.org/1999/xlink">
<style type="text/css">
	.st0{fill:#4E7A9E;}
</style>
<g>
<g>
<g>
<g>
<path class="st0" d="M25.8,32.9c3.4-3.1,6.9-6.7,9.4-10.6c2.1-3.2-2.6-6.6-5.2-4c-3.1,3.1-5.9,6.7-8.9,9.9      c-2.5,2.7-6.8,5.6-7.7,9.3c-0.3,1.1,0.6,2.5,1.9,2.4C19.4,39.6,22.9,35.6,25.8,32.9z"/>
<path class="st0" d="M74.2,33.2c-1.8-1.4-3.5-2.9-5-4.5c-1.6-1.7-3-3.5-4.1-5.5c-1.2-1.9-1.7-4.2-3.9-5.1      c-1.9-0.8-3.9-0.2-4.6,1.9c-1.4,4.7,4.7,10.6,7.9,13.4c2.6,2.3,9,7.8,12.7,5.3c0.6-0.4,0.7-0.9,0.6-1.6      C77.5,35.1,75.7,34.3,74.2,33.2z"/>
<path class="st0" d="M65.8,54.1c-1.5-2-4.2-2.2-5.6,0c-2.3,3.6-4.7,7.1-7,10.7c-1.7-3.3-3.6-6.4-5.6-9.5c-1.4-2.1-4.1-2.1-5.6,0      c-2.2,3.2-4.5,6.3-6.9,9.3c-1.8-2.9-3.4-5.9-4.8-9.1c-1-2.3-4.1-1.6-5.3,0c-3.7,5.1-6.3,10.8-10,15.9c-1.2,1.6,1.4,3,2.6,1.5      c2.8-3.6,6.1-6.8,9.2-10.2c1.5,3.1,3.2,6.1,5.1,8.9c1.1,1.6,3.6,2.3,5,0.6c2.6-3.1,5.1-6.3,7.5-9.5c2,3.3,3.8,6.7,5.4,10.3      c1.1,2.4,4.4,1.8,5.6,0c2.5-3.8,5-7.7,7.6-11.5c2.7,3.8,5.3,7.7,7.9,11.7c2.3,3.6,8.1,0.2,5.8-3.4      C73.2,64.5,69.6,59.2,65.8,54.1z"/>
</g>
</g>
</g>
</g>
</svg>