<?xml version="1.0" ?>
<!-- Uploaded to: SVG Repo, www.svgrepo.com, Generator: SVG Repo Mixer Tools -->
<svg width="800px" height="800px" viewBox="0 0 91 91" id="Layer_1" version="1.1" xml:space="preserve" xmlns="http://www.w3.org/2000/svg" xmlns:xlink="http://www.w3.org/1999/xlink">
<style type="text/css">
	.st0{fill:#4E7A9E;}
</style>
<g>
<g>
<path class="st0" d="M31.2,38.7c2.6,2.3,6.6-0.6,4.9-3.8c-1.9-3.4-5.2-6.3-8.1-8.9c-2.8-2.5-5.7-5.3-9.2-6.7    c-1.7-0.7-3.4,1.7-2.4,3.1c2,2.9,4.9,5.2,7.4,7.8C26.3,32.9,28.5,36.2,31.2,38.7z"/>
<path class="st0" d="M73.5,19.9c-3,2.3-5.8,4.9-8.5,7.5c-1.8,1.7-3.5,3.4-5.3,5.1c-1,0.9-2.5,2-2.7,3.4c-0.4,2.3,1.3,4.3,3.7,3.7    c1.5-0.3,2.4-1.8,3.3-2.9c1.6-1.9,3.2-3.7,4.9-5.6c2.5-2.9,4.9-5.8,7-8.9C76.8,20.9,74.9,18.8,73.5,19.9z"/>
<path class="st0" d="M55.1,58.1c-2-2-4-4.2-6.3-6c-1.4-1.1-2.8-1.7-4.5-0.9c-1.7,0.8-2.9,2.9-4,4.3c-1.6,2-3.1,3.9-4.7,5.8    c-3.2,3.8-6.4,7.6-10,10.9c-1.6,1.4,0.4,3.9,2.2,2.9c4.1-2.3,7.6-5.1,10.9-8.5c1.6-1.7,3.1-3.4,4.6-5.2c0.7-0.8,1.4-1.6,2.1-2.4    c0.3-0.3,0.5-0.6,0.8-0.9c0.9,0.9,1.7,2,2.5,2.8c1.6,1.6,3.1,3.3,4.7,4.9c3,3.1,6.1,6.1,9.1,9.2c3.2,3.2,8.2-1.8,5-5    C63.3,66.1,59.2,62.1,55.1,58.1z"/>
</g>
</g>
</svg>