<?xml version="1.0" ?>
<!-- Uploaded to: SVG Repo, www.svgrepo.com, Generator: SVG Repo Mixer Tools -->
<svg width="800px" height="800px" viewBox="0 0 91 91" id="Layer_1" version="1.1" xml:space="preserve" xmlns="http://www.w3.org/2000/svg" xmlns:xlink="http://www.w3.org/1999/xlink">
<style type="text/css">
	.st0{fill:#4E7A9E;}
</style>
<g>
<g>
<path class="st0" d="M66.3,30.9c1.9-2,3.8-4.1,5.6-6.2c1.8-2,3.9-4.1,5.2-6.5c1.9-3.5-2.5-6.6-5.4-4.2c-2.1,1.8-3.7,4.3-5.3,6.5    c-1.7,2.2-3.4,4.5-5,6.8C59.6,30.1,63.9,33.3,66.3,30.9L66.3,30.9z"/>
<path class="st0" d="M31.1,27.2c-1.6-2.3-3.3-4.5-5-6.8c-1.6-2.2-3.2-4.7-5.3-6.5c-2.9-2.5-7.3,0.6-5.4,4.2    c1.3,2.4,3.4,4.5,5.2,6.5c1.9,2.1,3.7,4.2,5.6,6.2C28.7,33.3,33.1,30.1,31.1,27.2L31.1,27.2z"/>
<path class="st0" d="M34.4,53.2c1.6-0.8,2.5-2.3,3.9-3.4c1.8-1.4,3.7-2.2,6-2.5c4.1-0.4,8.7,1.1,10.2,5.3c0.9,2.7,5.6,2.5,5.3-0.7    c-0.6-6.9-8.1-10.5-14.4-10.4c-5.1,0.1-14.8,4.2-13.2,10.8C32.4,53.3,33.5,53.6,34.4,53.2L34.4,53.2z"/>
<path class="st0" d="M10.7,38.2C16,41,20,46.7,20.2,52.8c0.2,6.4-3.6,13.2-8.9,16.6c-4.2,2.7,0.5,9,4.2,5.5    c6.4-6.1,11.5-13.7,10.7-23c-0.8-8-5.9-15.5-14.1-17C10.2,34.5,8.7,37.2,10.7,38.2L10.7,38.2z"/>
<path class="st0" d="M81.7,36.3c-8.2,1.5-13.3,9.1-14.1,17c-0.9,9.2,4.3,16.9,10.7,23c3.6,3.4,8.5-2.7,4.2-5.5    c-5.4-3.4-9.1-10.3-8.9-16.6c0.2-6.1,4.2-11.8,9.5-14.6C85,38.6,83.6,35.9,81.7,36.3L81.7,36.3z"/>
</g>
</g>
</svg>