<?xml version="1.0" ?>
<!-- Uploaded to: SVG Repo, www.svgrepo.com, Generator: SVG Repo Mixer Tools -->
<svg width="800px" height="800px" viewBox="0 0 91 91" id="Layer_1" version="1.1" xml:space="preserve" xmlns="http://www.w3.org/2000/svg" xmlns:xlink="http://www.w3.org/1999/xlink">
<style type="text/css">
	.st0{fill:#4E7A9E;}
</style>
<g>
<g>
<path class="st0" d="M29,37.3c2.7-3.1,6-5.9,9.3-8.5c4-3.2-2-9.5-5.7-5.7c-2.1,2.2-4,4.5-6,6.8c-2.2-2.1-4.5-4-7.1-5.7    c-3.7-2.3-6.9,3.4-3.4,5.8c3,2.1,5.5,4.7,8.1,7.3C25.4,38.5,27.8,38.7,29,37.3z"/>
<path class="st0" d="M71.1,23.1c-2.1,2.2-4,4.5-6,6.8c-2.2-2.1-4.5-4-7.1-5.7c-3.7-2.3-6.9,3.4-3.4,5.8c3,2.1,5.5,4.7,8.1,7.3    c1.2,1.2,3.6,1.4,4.8,0c2.7-3.1,6-5.9,9.3-8.5C80.8,25.6,74.8,19.3,71.1,23.1z"/>
<path class="st0" d="M65.4,48.8c-4.6,2.1-9,5.7-12.9,8.9c-2.2,1.8-4.2,3.7-6.1,5.8c-0.4,0.4-0.8,0.8-1.3,1.3    C40,58.1,33.3,49,24.5,47.6c-1.3-0.2-2.4,1.2-1.4,2.3c3.4,3.7,6.7,7.5,9.7,11.5c1.5,2.1,3.1,4.2,4.7,6.2c1.5,1.8,3.2,4.3,5.3,5.3    c2.4,1.1,4.4,0,6-1.8c1.9-2.1,3.7-4.2,5.8-6.2c2.1-2,4.3-3.8,6.6-5.4c2.5-1.8,5.2-2.9,7.8-4.5C73.2,52.7,69.6,46.9,65.4,48.8z"/>
</g>
</g>
</svg>