<?xml version="1.0" ?>
<!-- Uploaded to: SVG Repo, www.svgrepo.com, Generator: SVG Repo Mixer Tools -->
<svg width="800px" height="800px" viewBox="0 0 91 91" id="Layer_1" version="1.1" xml:space="preserve" xmlns="http://www.w3.org/2000/svg" xmlns:xlink="http://www.w3.org/1999/xlink">
<style type="text/css">
	.st0{fill:#4E7A9E;}
	.st1{fill:#F0ADAB;}
</style>
<g>
<g>
<g>
<path class="st0" d="M55.4,53.6c2.1-2.1,3.2-4.8,1.7-8c-2.3-4.7-10.3-5.5-13.3-1.3c-0.6,0.8,0.1,1.8,0.8,2.1     c2.3,0.8,5.3-1,7.4,0.4c3.6,2.3-0.8,5.2-3.2,5.9c-2.7,0.8-1.6,4.9,1.2,4.2c3.7-0.9,6.1,2.8,4.4,6c-1.7,3-5.3,3.2-8,1.7     c-3.7-2-8.1,3.1-4.6,6c2.8,2.4,7.6,1.7,10.8,0.3c3.1-1.4,5.7-4,6.6-7.4C60.1,59.6,58.4,55.6,55.4,53.6z"/>
<path class="st0" d="M33.2,20.9c-2.8,1.5-5.1,3.9-7.1,6.4c-2.4-3.1-5.6-6.2-9.3-6.3c-1.7,0-2.5,2.1-1.3,3.2c2.9,3,6,5.3,8.3,8.9     c1.1,1.8,3.4,1.6,4.6,0c2.3-3.1,5.3-5.3,8.3-7.8C39.1,23.2,35.9,19.4,33.2,20.9z"/>
<path class="st0" d="M71.9,21.7c-2.8,1.5-5.1,3.9-7.1,6.4c-2.4-3.1-5.6-6.2-9.3-6.3c-1.7,0-2.5,2.1-1.3,3.2c2.9,3,6,5.3,8.3,8.9     c1.1,1.8,3.4,1.6,4.6,0c2.3-3.1,5.3-5.3,8.3-7.8C77.9,24,74.7,20.2,71.9,21.7z"/>
</g>
<path class="st1" d="M10.4,52.1c1.4-1.4,2.8-2.7,4.2-4.1c1.4-1.4,3.4-2.7,3.4-4.8c0-1.2-1-2.2-2.2-2.2c-2.3,0.1-3.5,2.2-4.8,3.8    c-1.2,1.6-2.2,3.5-3.2,5.3C7.1,51.7,9.1,53.5,10.4,52.1L10.4,52.1z"/>
<path class="st1" d="M21.2,52.8c1.4-1.1,2.8-2.2,4.2-3.3c1.3-1.1,3.1-2.2,3.8-3.8c1-2.2-1.1-4.9-3.5-3.5c-1.7,0.9-2.6,2.9-3.6,4.4    c-1,1.5-2,3.1-2.9,4.7C18.3,52.5,20.1,53.6,21.2,52.8L21.2,52.8z"/>
<path class="st1" d="M65.6,52.1c1.4-1.4,2.8-2.7,4.2-4.1c1.4-1.4,3.4-2.7,3.4-4.8c0-1.2-1-2.2-2.2-2.2c-2.3,0.1-3.5,2.2-4.8,3.8    c-1.2,1.6-2.2,3.5-3.2,5.3C62.3,51.7,64.3,53.5,65.6,52.1L65.6,52.1z"/>
<path class="st1" d="M76.4,52.8c1.4-1.1,2.8-2.2,4.2-3.3c1.3-1.1,3.1-2.2,3.8-3.8c1-2.2-1.1-4.9-3.5-3.5c-1.7,0.9-2.6,2.9-3.6,4.4    c-1,1.5-2,3.1-2.9,4.7C73.5,52.5,75.3,53.6,76.4,52.8L76.4,52.8z"/>
</g>
</g>
</svg>