<?xml version="1.0" ?>
<!-- Uploaded to: SVG Repo, www.svgrepo.com, Generator: SVG Repo Mixer Tools -->
<svg width="800px" height="800px" viewBox="0 0 91 91" id="Layer_1" version="1.1" xml:space="preserve" xmlns="http://www.w3.org/2000/svg" xmlns:xlink="http://www.w3.org/1999/xlink">
<style type="text/css">
	.st0{fill:#4E7A9E;}
</style>
<g>
<g>
<g>
<path class="st0" d="M27.7,34.3c0.9,0.8,2.4,1,3.3,0c2.6-2.8,1.2-7.4,1-10.9c-0.2-3.2,0.1-8-2.4-10.3c-0.6-0.5-1.5-0.6-2,0     c-2.4,2.5-1.7,7.1-1.7,10.3C26,26.8,24.9,31.7,27.7,34.3z"/>
<path class="st0" d="M50.1,27.7c5.3,0.1,7.9,4.6,10.6,8.5c2.5,3.6,8.4,0.2,5.9-3.5c-2.7-3.9-5.5-7.7-9.3-9.9c1.6-1,3.3-2,4.8-3.1     c2.7-1.9,6.1-3.8,7.4-6.9c0.3-0.8-0.5-1.5-1.2-1.6c-3.7-0.3-7.7,2.5-10.8,4.2c-3.4,1.8-7,3.7-9.8,6.5     C45.6,24,47.2,27.6,50.1,27.7z"/>
<path class="st0" d="M74.6,47.3c-10.1-1-20.2-1.6-30.4-1.6c-9.9,0-19.8,0.2-29.5,2.8c-1.4,0.4-0.9,2.2,0.3,2.3     c3.5,0.4,6.9,0.5,10.4,0.6c-0.4,4.7-0.1,9.5,1.1,14.1c1.7,6.7,5.9,11.1,12.4,13.5c6.7,2.5,15.9,1,20.8-4.4     c5.5-6,5.7-14.2,5.4-21.9c3.1,0.3,6.3,0.5,9.4,0.9C78.5,54,78.5,47.7,74.6,47.3z M54.9,69.7c-3.9,4.4-11.1,4.5-16,1.9     c-7.2-3.8-7.4-12.6-8-20.2c3.3,0,6.7,0,10,0c-0.5,2.3-0.7,4.6-0.9,6.9c-0.3,2.8-0.8,5,1.2,7.3c1.1,1.3,3.3,1.2,4.4,0     c2.1-2.1,1.6-4.5,1.4-7.3c-0.1-2.3-0.2-4.5-0.6-6.8c3.8,0.1,7.6,0.3,11.4,0.5C58.6,58,59,65.1,54.9,69.7z"/>
</g>
</g>
</g>
</svg>